<?xml version="1.0" encoding="UTF-8"?>
<svg xmlns="http://www.w3.org/2000/svg" id="Layer_1" data-name="Layer 1" viewBox="0 0 194 36.88">
  <defs>
    <style>.cls-1{fill:#563d7e}.cls-2{fill:#d0a427}</style>
  </defs>
  <path class="cls-1" d="M59.13 33a3.52 3.52 0 0 1-.11.87 2.5 2.5 0 0 1-.38.83 2.06 2.06 0 0 1-.7.62 2.47 2.47 0 0 1-2.13 0 2.06 2.06 0 0 1-.7-.62 2.51 2.51 0 0 1-.38-.83 3.52 3.52 0 0 1-.11-.87v-5.48h-1.21v5.68a3.68 3.68 0 0 0 .27 1.42 3.38 3.38 0 0 0 .73 1.11 3.24 3.24 0 0 0 1.1.72 3.82 3.82 0 0 0 2.73 0 3.24 3.24 0 0 0 1.1-.72 3.39 3.39 0 0 0 .73-1.11 3.68 3.68 0 0 0 .27-1.42v-5.68h-1.21zM72.84 34.89h-.02l-4.94-7.37h-1.59v8.96h1.21v-7.36h.03l4.99 7.36h1.54v-8.96h-1.22v7.37zM80.16 27.52h1.22v8.96h-1.22zM90.32 34.81h-.03l-2.63-7.29h-1.41l3.46 8.96h1.14l3.53-8.96h-1.33l-2.73 7.29zM100.47 32.47h4.25v-1.14h-4.25v-2.67h4.57v-1.14h-5.79v8.96h6.02v-1.14h-4.8v-2.87zM115.53 32.12a2.48 2.48 0 0 0 .7-.54 2.34 2.34 0 0 0 .44-.72 2.3 2.3 0 0 0 .15-.83 3.2 3.2 0 0 0-.13-.87 2 2 0 0 0-.45-.81 2.41 2.41 0 0 0-.88-.6 3.69 3.69 0 0 0-1.42-.23h-3.15v9H112v-3.99h1.35l2.28 3.95h1.52l-2.54-4.09a2.42 2.42 0 0 0 .92-.27zm-1.93-.65H112v-2.89h1.6a4.33 4.33 0 0 1 .7.06 1.89 1.89 0 0 1 .62.21 1.15 1.15 0 0 1 .44.44 1.75 1.75 0 0 1 0 1.48 1.15 1.15 0 0 1-.44.44 1.88 1.88 0 0 1-.62.21 4.32 4.32 0 0 1-.7.05zM126.42 31.93a4.55 4.55 0 0 0-1.06-.42 9.72 9.72 0 0 1-1.06-.34 2.56 2.56 0 0 1-.82-.49 1.13 1.13 0 0 1-.33-.87 1.38 1.38 0 0 1 .08-.44 1.21 1.21 0 0 1 .28-.45 1.51 1.51 0 0 1 .54-.34 2.3 2.3 0 0 1 .84-.13 2 2 0 0 1 .95.22 1.64 1.64 0 0 1 .65.57l1-.9a2.41 2.41 0 0 0-1.18-.82 4.84 4.84 0 0 0-1.41-.2 3.5 3.5 0 0 0-1.39.25 3 3 0 0 0-.94.61 2.39 2.39 0 0 0-.71 1.65 2.54 2.54 0 0 0 .33 1.39 2.6 2.6 0 0 0 .81.78 4.34 4.34 0 0 0 1.06.47q.58.17 1.06.35a2.86 2.86 0 0 1 .82.46 1 1 0 0 1 .33.79 1.24 1.24 0 0 1-.16.65 1.55 1.55 0 0 1-.42.47 1.9 1.9 0 0 1-.58.28 2.17 2.17 0 0 1-.62.09 2.52 2.52 0 0 1-1.06-.23 2 2 0 0 1-.84-.73l-1 .86a2.69 2.69 0 0 0 1.23.94 4.42 4.42 0 0 0 1.63.3 3.83 3.83 0 0 0 1.22-.19 3 3 0 0 0 1-.54 2.58 2.58 0 0 0 .66-.87 2.67 2.67 0 0 0 .25-1.16 2.16 2.16 0 0 0-.33-1.27 2.47 2.47 0 0 0-.83-.74zM133.16 27.52h1.22v8.96h-1.22zM139.46 28.66h2.89v7.82h1.21v-7.82h2.89v-1.14h-6.99v1.14zM154.26 31.46l-2.44-3.94h-1.56l3.39 5.14v3.82h1.22v-3.82l3.39-5.14h-1.48l-2.52 3.94zM168.41 20.31a6.61 6.61 0 0 0 6.84-6.51V3l1.59-.48V.89h-6.49v1.56l1.56.51v10.85a3.65 3.65 0 0 1-3.5 3.93 3.8 3.8 0 0 1-3.53-3.93V3l1.6-.52V.89h-7v1.66l1.61.46v10.8c.03 4.19 3.13 6.5 7.32 6.5zM66.41 14.23c0-2.64-2.18-3.8-3.47-4.36a4.28 4.28 0 0 0 2.44-4c0-3.17-2.71-5-6.24-5h-7.37v1.58l2 .56v14.78l-2 .54v1.59h7.87c3.56-.01 6.77-1.62 6.77-5.69zM57.49 3.17h1.32a2.77 2.77 0 0 1 2.77 2.77c0 1.82-.92 3-2.61 3h-1.48zm2 14.47h-2v-6.35h1.75c1.35 0 3.3 1.12 3.3 3a3.07 3.07 0 0 1-3.07 3.35zM82.24 19.91l.82-3.9-1.62-.56-1.11 1.99h-5.19v-6.08h3.94l.42 1.27h1.58V7.58H79.5l-.44 1.33-3.92.01V3.33l4.84.01.54 1.76h1.79V.89H69.44v1.55l1.95.56-.01 14.8-1.95.53v1.58h12.81zM97.1 17.48l-4.54-.01V2.97l1.95-.53V.89H86.8v1.55l2 .58v14.76l-2 .55v1.58h12.46l1.04-4.56-1.88-.53-1.32 2.66zM116.25 19.91l1.03-4.56-1.88-.53-1.32 2.65h-4.54V5.93L109.53 3l2-.56V.89h-7.75v1.55l2.02.58v14.76l-2.02.55v1.58h12.47zM149.09.89v1.56l1.54.47v.01l-3.91 12.3-3.81-12.3 1.51-.48V.89h-7.2v1.62l1.61.51v.02l6.04 16.88h3.14l6.16-16.9v-.01l1.6-.54V.89h-6.68zM122.66 17.79l-1.97.54v1.58h12.81l.51-2.48h.01l.3-1.42-1.62-.56-1.11 1.98-5.19.01v-6.08h3.94l.42 1.22h1.58V7.63h-1.58l-.43 1.28-3.93.01V3.33l4.84.01.54 1.71h1.78V.89h-12.88v1.55l1.98.57v14.78zM193.18 19.91l.82-3.9-1.62-.56-1.11 1.99h-5.19v-6.08h3.93l.43 1.27h1.58V7.58h-1.58L190 8.91l-3.92.01V3.33l4.84.01.54 1.76h1.79V.89h-12.87v1.55l1.95.56-.02 14.8-1.95.53v1.58h12.82z"></path>
  <path class="cls-2" d="M27.22 16.23a.62.62 0 0 1 .28-.41l7.3-4a.5.5 0 0 0 .24-.42V6a.49.49 0 0 0 0-.06.51.51 0 0 0-.71-.43L21.83 13a.53.53 0 0 0-.25.42v23.46l3.09-.39z"></path>
  <path class="cls-2" d="M40.69 12.94v-.17a.49.49 0 0 0-.66-.4l-.18.1-9.75 5.31a.65.65 0 0 0-.29.41L27 36.21l2.13-.45 4.43-13.3a.85.85 0 0 1 .34-.4l6.51-3.64a.52.52 0 0 0 .24-.42zM13.48 16.23a.62.62 0 0 0-.28-.41l-7.3-4a.5.5 0 0 1-.24-.42V6a.49.49 0 0 1 0-.06.51.51 0 0 1 .71-.43L18.84 13a.53.53 0 0 1 .25.42v23.51L16 36.49z"></path>
  <path class="cls-2" d="M0 12.94v-.17a.52.52 0 0 1 .51-.43.52.52 0 0 1 .16 0l.18.1 9.75 5.32a.65.65 0 0 1 .29.41l2.77 18-2.13-.45-4.44-13.26a.85.85 0 0 0-.34-.4L.24 18.42A.52.52 0 0 1 0 18z"></path>
  <path class="cls-1" d="M29 5.09l-8.43 5a.4.4 0 0 1-.4 0l-8.43-5a.4.4 0 0 1 0-.7L20.17 0a.4.4 0 0 1 .36 0L29 4.39a.4.4 0 0 1 0 .7z"></path>
</svg>
